# Blender v2.81 (sub 16) OBJ File: 'hexagon.blend'
# www.blender.org
mtllib hexagon.mtl
o GD_mesh
v 0.500000 0.000000 -0.250000
v -0.000000 -0.000000 -0.500000
v -0.500000 0.000000 -0.250000
v -0.500000 0.000000 0.250000
v 0.500000 0.000000 0.250000
v 0.000000 -0.000000 0.500000
v 0.000000 -0.000000 0.000000
v 0.500000 0.100000 -0.250000
v -0.000000 0.100000 -0.500000
v -0.500000 0.100000 -0.250000
v -0.500000 0.100000 0.250000
v 0.500000 0.100000 0.250000
v 0.000000 0.100000 0.500000
v -0.000000 0.100000 0.000000
vn 0.0000 -1.0000 0.0000
vn -0.0000 1.0000 0.0000
vn 0.4472 0.0000 0.8944
vn 0.4472 0.0000 -0.8944
vn -0.4472 0.0000 -0.8944
vn -1.0000 0.0000 0.0000
vn -0.4472 0.0000 0.8944
vn 1.0000 0.0000 0.0000
usemtl None
s off
f 5//1 7//1 1//1
f 1//1 7//1 2//1
f 2//1 7//1 3//1
f 3//1 7//1 4//1
f 4//1 7//1 6//1
f 6//1 7//1 5//1
f 12//2 8//2 14//2
f 8//2 9//2 14//2
f 9//2 10//2 14//2
f 10//2 11//2 14//2
f 11//2 13//2 14//2
f 13//2 12//2 14//2
f 6//3 5//3 12//3 13//3
f 1//4 2//4 9//4 8//4
f 2//5 3//5 10//5 9//5
f 3//6 4//6 11//6 10//6
f 4//7 6//7 13//7 11//7
f 5//8 1//8 8//8 12//8
